<svg xmlns="http://www.w3.org/2000/svg" width="300" height="43"><path d="M45.123 15.55c-1.133 0-1.964.193-2.489.577-.527.385-.932 1.023-1.214 1.913l-7.65 24.041h-4.128L22.903 22.35h-.304l-6.86 19.731h-4.128L3.718 17.797c-.284-.89-.648-1.488-1.093-1.791-.446-.304-1.153-.456-2.125-.456v-2.003h14.753v2.003h-1.7c-.85 0-1.275.364-1.275 1.093 0 .243.06.587.182 1.032l4.067 14.631h.122l6.071-18.577h5.646l5.889 18.456h.122l4.067-14.632c.081-.243.122-.526.122-.85 0-.445-.122-.748-.364-.91-.243-.161-.628-.243-1.153-.243H35.47v-2.003h9.653v2.003zm25.377.911c2.428 2.429 3.642 6.192 3.642 11.292 0 5.141-1.225 8.926-3.673 11.353-2.449 2.429-6.223 3.644-11.322 3.644s-8.885-1.215-11.353-3.644c-2.469-2.428-3.703-6.171-3.703-11.231 0-5.1 1.245-8.884 3.734-11.353 2.489-2.469 6.303-3.703 11.444-3.703 5.058 0 8.802 1.213 11.231 3.642zm-5.403 12.142c0-4.775-.466-8.236-1.397-10.382-.931-2.145-2.469-3.217-4.614-3.217-2.105 0-3.623 1.062-4.553 3.187-.931 2.125-1.396 5.373-1.396 9.745 0 4.492.465 7.731 1.396 9.712.931 1.983 2.49 2.975 4.675 2.975 2.064 0 3.561-.971 4.492-2.914s1.397-4.978 1.397-9.106zM95.756 12.94c-3.198 0-5.728 1.964-7.589 5.889h-.182v-5.585h-2.61l-9.532 1.518v2.003h2.003c.729 0 1.204.152 1.427.455.222.303.334.921.334 1.851v17.971c0 .89-.091 1.538-.273 1.942-.182.405-.537.688-1.062.849-.527.162-1.377.244-2.55.244v2.003h17.181v-2.003c-1.417 0-2.439-.082-3.066-.244-.628-.162-1.053-.444-1.275-.849-.223-.404-.334-1.052-.334-1.942V25.629h.06c0-1.375.263-2.813.79-4.311.526-1.497 1.163-2.741 1.912-3.734.749-.991 1.467-1.488 2.155-1.488.202 0 .364.051.486.152.121.101.182.212.182.334s-.173.395-.516.82c-.344.425-.516 1.042-.516 1.851 0 1.134.364 2.024 1.093 2.672.729.648 1.7.971 2.914.971 1.457 0 2.55-.445 3.279-1.336.728-.89 1.093-2.003 1.093-3.34 0-1.578-.476-2.853-1.427-3.825-.952-.97-2.277-1.455-3.977-1.455zm37.519 27.138h1.396v2.003h-11.717l-.425-2.671c-2.671 2.227-5.646 3.34-8.924 3.34-3.642 0-6.476-1.245-8.5-3.734-2.024-2.49-3.036-6-3.036-10.534 0-5.099 1.275-8.975 3.825-11.626 2.55-2.65 6.151-3.977 10.807-3.977 1.902 0 3.642.264 5.221.789h.303v-7.71c0-.85-.132-1.436-.395-1.76-.264-.324-.699-.486-1.305-.486h-2.064V1.708L128.175.19h2.61v36.852c0 1.255.172 2.074.516 2.458.345.386 1.003.578 1.974.578zm-11.049-23.192c-1.579-1.214-3.178-1.821-4.796-1.821-2.186 0-3.805.971-4.857 2.914-1.053 1.942-1.579 4.878-1.579 8.804 0 4.168.536 7.296 1.609 9.379 1.072 2.085 2.621 3.127 4.644 3.127.972 0 1.822-.244 2.55-.729.729-.486 1.538-1.194 2.429-2.126V16.886zm29.201 6.982l-2.792-.85c-1.498-.526-2.682-1.102-3.553-1.73-.871-.627-1.304-1.488-1.304-2.58 0-1.093.455-1.983 1.367-2.672.91-.688 2.093-1.032 3.551-1.032 1.861 0 3.46.607 4.797 1.821 1.335 1.214 2.285 2.894 2.852 5.039h1.822L157.742 13h-1.518c-.123.364-.265.638-.425.82-.164.182-.466.273-.912.273s-1.052-.141-1.822-.425a79.373 79.373 0 00-1.455-.425c-.852-.243-2.005-.364-3.462-.364-3.359 0-6.019.82-7.983 2.459-1.963 1.639-2.943 3.876-2.943 6.709 0 2.024.607 3.714 1.821 5.069 1.215 1.357 3.237 2.519 6.07 3.492l3.219.91c1.861.689 3.156 1.356 3.885 2.004.729.648 1.093 1.538 1.093 2.671 0 1.456-.515 2.56-1.548 3.308-1.033.75-2.337 1.123-3.915 1.123-2.268 0-4.2-.748-5.799-2.246-1.598-1.496-2.64-3.54-3.126-6.131h-1.942l.547 9.896h1.457c.446-.566.991-.849 1.64-.849.403 0 1.091.162 2.063.485a14.888 14.888 0 005.526 1.033c3.641 0 6.496-.911 8.559-2.732 2.065-1.822 3.096-4.209 3.096-7.164 0-2.266-.666-4.098-2.003-5.495-1.337-1.397-3.484-2.582-6.438-3.553zm59.68 15.117c-.163-.404-.244-1.052-.244-1.942V22.411c0-3.238-.799-5.636-2.397-7.194-1.6-1.558-3.855-2.338-6.77-2.338-2.185 0-4.108.405-5.767 1.214a9.761 9.761 0 00-4.007 3.582c-.568-1.416-1.57-2.57-3.005-3.461-1.437-.89-3.208-1.336-5.312-1.336-3.683 0-6.942 1.418-9.775 4.25h-.121v-3.886h-2.611l-9.531 1.518v2.003h2.003c.729 0 1.204.152 1.427.455.222.303.333.921.333 1.851V37.04c0 .89-.091 1.538-.273 1.942-.182.405-.537.688-1.063.849-.526.162-1.375.244-2.549.244v2.003h15.846v-2.003c-.972 0-1.681-.061-2.126-.183-.445-.121-.759-.384-.941-.789-.182-.403-.273-1.052-.273-1.942V19.436c.93-1.011 1.8-1.74 2.611-2.186.808-.445 1.719-.668 2.732-.668 1.497 0 2.621.496 3.37 1.488.748.992 1.123 2.56 1.123 4.705v14.571c0 .851-.071 1.456-.212 1.821-.142.364-.426.608-.851.729-.425.122-1.123.183-2.094.183v2.003h15.056v-2.003c-1.011 0-1.74-.082-2.185-.244-.446-.162-.739-.444-.881-.849-.142-.404-.212-1.052-.212-1.942V20.529c1.174-2.631 2.915-3.946 5.222-3.946 3.075 0 4.614 2.064 4.614 6.192v14.571c0 .81-.071 1.407-.212 1.791-.142.386-.436.638-.881.759-.445.122-1.153.183-2.125.183v2.003h15.482v-2.003c-1.093 0-1.893-.082-2.398-.244-.508-.162-.843-.445-1.003-.85zm13.356-29.142c1.336 0 2.508-.465 3.521-1.397 1.011-.93 1.518-2.064 1.518-3.399s-.496-2.479-1.488-3.431c-.992-.95-2.175-1.427-3.551-1.427-1.336 0-2.5.476-3.492 1.427-.992.952-1.488 2.095-1.488 3.431s.496 2.469 1.488 3.399c.992.933 2.156 1.397 3.492 1.397zm4.796 29.142c-.163-.404-.243-1.052-.243-1.942v-23.8h-2.671l-9.715 1.518v2.003h2.004c.729 0 1.204.152 1.426.455s.334.921.334 1.851v17.971c0 .89-.091 1.538-.273 1.942-.182.405-.537.688-1.063.849-.526.162-1.377.244-2.549.244v2.003h16.027v-2.003c-1.053 0-1.821-.082-2.307-.244-.485-.159-.81-.442-.97-.847zm20.944-.152a4.314 4.314 0 01-1.7.333c-1.215 0-2.085-.455-2.611-1.365-.526-.912-.789-2.338-.789-4.281V15.732h5.949v-2.186h-5.949V2.801H243.1c-.769 2.753-2.085 5.16-3.946 7.225s-3.967 3.299-6.314 3.703v2.003h3.642v18.153c0 3.116.678 5.383 2.034 6.799 1.356 1.416 3.349 2.126 5.981 2.126 1.375 0 2.671-.193 3.885-.577 1.215-.385 2.236-.87 3.066-1.457a101.01 101.01 0 001.488-1.062l-1.032-1.701c-.609.325-1.176.598-1.701.82zm34.666.152c-.162-.404-.243-1.052-.243-1.942V22.411c0-3.197-.769-5.585-2.307-7.164s-3.703-2.368-6.496-2.368c-3.522 0-6.739 1.377-9.653 4.129h-.122V.19h-2.671l-9.714 1.518v2.004h2.004c.728 0 1.203.151 1.426.455.222.304.334.921.334 1.852v31.024c0 .89-.092 1.538-.274 1.942-.182.405-.537.688-1.062.849-.527.162-1.377.244-2.55.244v2.003h15.846v-2.003c-1.012 0-1.741-.082-2.186-.244-.445-.162-.749-.434-.91-.819-.163-.384-.244-1.003-.244-1.852V19.558c.971-1.052 1.872-1.811 2.702-2.277.829-.465 1.75-.699 2.762-.699 1.497 0 2.621.496 3.37 1.488.748.992 1.123 2.56 1.123 4.705v14.571c0 .81-.071 1.396-.212 1.76-.142.364-.426.618-.851.759-.425.142-1.123.213-2.094.213v2.003h15.482v-2.003c-1.134 0-1.953-.082-2.459-.244-.505-.161-.84-.444-1.001-.849zm13.265-4.28c-.911-.911-2.014-1.366-3.309-1.366-1.255 0-2.337.466-3.248 1.397s-1.366 2.023-1.366 3.277c0 1.256.455 2.338 1.366 3.249.911.91 1.993 1.366 3.248 1.366 1.296 0 2.398-.445 3.309-1.336s1.366-1.983 1.366-3.279c0-1.294-.455-2.398-1.366-3.308z"/></svg>